<svg id="Layer_1" data-name="Layer 1" xmlns="http://www.w3.org/2000/svg" viewBox="0 0 122 122"><defs><style>.cls-1{fill:#f1f2f2;stroke-width:5px;}.cls-1,.cls-3{stroke:#231f20;stroke-miterlimit:10;}.cls-2,.cls-3{fill:#231f20;}.cls-3{stroke-linecap:round;stroke-width:2.69px;}</style></defs><path class="cls-1" d="M103,39.79c-5.52-5.65-13.84-10.83-23.13-14v-7a6.59,6.59,0,1,0-13.18,0,6.59,6.59,0,0,0-13.18,0,6.59,6.59,0,0,0-6.59-6.59h0a6.59,6.59,0,0,0-6.59,6.59V26.7A65,65,0,0,0,21.79,38.1C10.27,48.37,2.84,65.41,2.84,78.26c0,23,24.64,31.55,58.16,31.55s58.16-8.51,58.16-31.55C119.16,66.32,112.34,49.4,103,39.79Z"/><ellipse class="cls-2" cx="41.2" cy="61" rx="7.19" ry="11.09"/><ellipse class="cls-2" cx="91.51" cy="61" rx="7.19" ry="11.09"/><path class="cls-2" d="M60.39,73.65S90,73.54,93.78,81.07L74.24,91.25l13.57,7c-1.57,7.89-30.09.88-30.09.88s-2.12-4.48-1.13-14C57.49,76.62,60.39,73.65,60.39,73.65Z"/><line class="cls-3" x1="61" y1="29.37" x2="61" y2="37.69"/><line class="cls-3" x1="69.22" y1="28.77" x2="75.05" y2="37.63"/><line class="cls-3" x1="52.93" y1="29.37" x2="47.55" y2="37.78"/></svg>